<?xml version="1.0" encoding="utf-8"?>
<!-- Generator: Adobe Illustrator 18.0.0, SVG Export Plug-In . SVG Version: 6.00 Build 0)  -->
<!DOCTYPE svg PUBLIC "-//W3C//DTD SVG 1.1//EN" "http://www.w3.org/Graphics/SVG/1.1/DTD/svg11.dtd">
<svg version="1.1" id="Layer_1" xmlns="http://www.w3.org/2000/svg" xmlns:xlink="http://www.w3.org/1999/xlink" x="0px" y="0px"
	 viewBox="0 0 100 100" enable-background="new 0 0 100 100" xml:space="preserve">
<path fill="#FFFFFF" d="M88.1,65.7C87.6,65.6,75,62.4,75,37.5C75,27,68.5,18,59.2,14.3c-0.7-4.5-4.5-8-9.2-8s-8.6,3.5-9.2,8
	C31.5,18,25,27,25,37.5c0,24.9-12.6,28.1-13.2,28.2c-1.4,0.3-2.5,1.6-2.5,3.1V75c0,1.4,1,2.7,2.4,3c0.4,0.1,9,2.2,25.8,2.9
	c0,0.1,0,0.3,0,0.3c0,6.9,5.6,12.5,12.5,12.5s12.5-5.6,12.5-12.5c0,0,0-0.1,0-0.3c16.8-0.8,25.3-2.8,25.8-2.9c1.4-0.3,2.4-1.6,2.4-3
	v-6.2C90.6,67.3,89.6,66,88.1,65.7z M50,9.4c2.6,0,4.8,1.6,5.8,3.8c-1.9-0.4-3.8-0.7-5.8-0.7s-3.9,0.3-5.8,0.7
	C45.2,11,47.4,9.4,50,9.4z M59.4,81.2c0,5.2-4.2,9.4-9.4,9.4s-9.4-4.2-9.4-9.4c0,0,0-0.1,0-0.2c2.9,0.1,6,0.2,9.4,0.2
	s6.5-0.1,9.4-0.2C59.4,81.2,59.4,81.2,59.4,81.2z M87.5,75c0,0-12.5,3.1-37.5,3.1S12.5,75,12.5,75v-6.2c0,0,15.6-3.1,15.6-31.2
	c0-12.1,9.8-21.9,21.9-21.9s21.9,9.8,21.9,21.9c0,28.1,15.6,31.2,15.6,31.2V75z"/>
</svg>
